<svg xmlns="http://www.w3.org/2000/svg" width="24" height="24" viewBox="0 0 1000 1000"><path d="M388 467v71c0 29 25 54 54 54 29 0 54-25 54-54v-71h71c29 0 54-25 54-54s-25-55-54-55h-71v-70c0-30-25-55-54-55-29 0-54 25-54 55v70h-71c-29 0-54 25-54 55s25 54 54 54h71z m266-350c-62-46-137-71-216-71-205 0-367 162-367 367s162 366 367 366 366-162 366-366c0-84-25-159-71-217l163-163c21-20 21-54 0-75-21-21-54-21-75 0l-167 159z m-216 37c141 0 258 117 258 259s-117 258-258 258-259-117-259-258 117-259 259-259z"/></svg>